HIERARCHY
ROOT hip
{
  OFFSET 0 0 0
  CHANNELS 6 Xposition Yposition Zposition Zrotation Yrotation Xrotation
  JOINT abdomen
  {
    OFFSET 0 20.6881 -0.73152
    CHANNELS 3 Zrotation Xrotation Yrotation
    JOINT chest
    {
      OFFSET 0 11.7043 -0.48768
      CHANNELS 3 Zrotation Xrotation Yrotation
      JOINT neck
      {
        OFFSET 0 22.1894 -2.19456
        CHANNELS 3 Zrotation Xrotation Yrotation
        JOINT head
        {
          OFFSET -0.24384 7.07133 1.2192
          CHANNELS 3 Zrotation Xrotation Yrotation
          JOINT leftEye
          {
            OFFSET 4.14528 8.04674 8.04672
            CHANNELS 3 Zrotation Xrotation Yrotation
            End Site
            {
              OFFSET 1 0 0
            }
          }
          JOINT rightEye
          {
            OFFSET -3.6576 8.04674 8.04672
            CHANNELS 3 Zrotation Xrotation Yrotation
            End Site
            {
              OFFSET 1 0 0
            }
          }
        }
      }
      JOINT rCollar
      {
        OFFSET -2.68224 19.2634 -4.8768
        CHANNELS 3 Zrotation Xrotation Yrotation
        JOINT rShldr
        {
          OFFSET -8.77824 -1.95073 1.46304
          CHANNELS 3 Zrotation Xrotation Yrotation
          JOINT rForeArm
          {
            OFFSET -28.1742 -1.7115 0.48768
            CHANNELS 3 Zrotation Xrotation Yrotation
            JOINT rHand
            {
              OFFSET -22.5879 0.773209 7.07136
              CHANNELS 3 Zrotation Xrotation Yrotation
              JOINT rThumb1
              {
                OFFSET -1.2192 -0.487915 3.41376
                CHANNELS 3 Zrotation Xrotation Yrotation
                JOINT rThumb2
                {
                  OFFSET -3.37035 -0.52449 3.41376
                  CHANNELS 3 Zrotation Xrotation Yrotation
                  End Site
                  {
                    OFFSET -1.78271 -1.18214 1.43049
                  }
                }
              }
              JOINT rIndex1
              {
                OFFSET -7.75947 0.938293 5.60832
                CHANNELS 3 Zrotation Xrotation Yrotation
                JOINT rIndex2
                {
                  OFFSET -2.54057 -0.884171 1.56538
                  CHANNELS 3 Zrotation Xrotation Yrotation
                  End Site
                  {
                    OFFSET -1.62519 -0.234802 1.16502
                  }
                }
              }
              JOINT rMid1
              {
                OFFSET -8.24714 1.18213 3.41376
                CHANNELS 3 Zrotation Xrotation Yrotation
                JOINT rMid2
                {
                  OFFSET -3.10165 -0.590103 1.0647
                  CHANNELS 3 Zrotation Xrotation Yrotation
                  End Site
                  {
                    OFFSET -2.48547 -0.328903 0.83742
                  }
                }
              }
              JOINT rRing1
              {
                OFFSET -8.82822 0.546677 1.51678
                CHANNELS 3 Zrotation Xrotation Yrotation
                JOINT rRing2
                {
                  OFFSET -2.60934 -0.819778 -0.0198488
                  CHANNELS 3 Zrotation Xrotation Yrotation
                  End Site
                  {
                    OFFSET -2.33842 -0.294052 0.168128
                  }
                }
              }
              JOINT rPinky1
              {
                OFFSET -8.27202 -0.0477905 -0.4584
                CHANNELS 3 Zrotation Xrotation Yrotation
                JOINT rPinky2
                {
                  OFFSET -1.82734 -0.647385 -0.700984
                  CHANNELS 3 Zrotation Xrotation Yrotation
                  End Site
                  {
                    OFFSET -1.69225 -0.51767 -0.607171
                  }
                }
              }
            }
          }
        }
      }
      JOINT lCollar
      {
        OFFSET 2.68224 19.2634 -4.8768
        CHANNELS 3 Zrotation Xrotation Yrotation
        JOINT lShldr
        {
          OFFSET 8.77824 -1.95073 1.46304
          CHANNELS 3 Zrotation Xrotation Yrotation
          JOINT lForeArm
          {
            OFFSET 28.1742 -1.7115 0.48768
            CHANNELS 3 Zrotation Xrotation Yrotation
            JOINT lHand
            {
              OFFSET 22.5879 0.773209 7.07136
              CHANNELS 3 Zrotation Xrotation Yrotation
              JOINT lThumb1
              {
                OFFSET 1.2192 -0.487915 3.41376
                CHANNELS 3 Zrotation Xrotation Yrotation
                JOINT lThumb2
                {
                  OFFSET 3.37035 -0.52449 3.41376
                  CHANNELS 3 Zrotation Xrotation Yrotation
                  End Site
                  {
                    OFFSET 1.78271 -1.18214 1.43049
                  }
                }
              }
              JOINT lIndex1
              {
                OFFSET 7.75947 0.938293 5.60832
                CHANNELS 3 Zrotation Xrotation Yrotation
                JOINT lIndex2
                {
                  OFFSET 2.54057 -0.884171 1.56538
                  CHANNELS 3 Zrotation Xrotation Yrotation
                  End Site
                  {
                    OFFSET 1.62519 -0.234802 1.16502
                  }
                }
              }
              JOINT lMid1
              {
                OFFSET 8.24714 1.18213 3.41376
                CHANNELS 3 Zrotation Xrotation Yrotation
                JOINT lMid2
                {
                  OFFSET 3.10165 -0.590103 1.0647
                  CHANNELS 3 Zrotation Xrotation Yrotation
                  End Site
                  {
                    OFFSET 2.48547 -0.328903 0.83742
                  }
                }
              }
              JOINT lRing1
              {
                OFFSET 8.82822 0.546677 1.51678
                CHANNELS 3 Zrotation Xrotation Yrotation
                JOINT lRing2
                {
                  OFFSET 2.60934 -0.819778 -0.0198488
                  CHANNELS 3 Zrotation Xrotation Yrotation
                  End Site
                  {
                    OFFSET 2.33842 -0.294052 0.168128
                  }
                }
              }
              JOINT lPinky1
              {
                OFFSET 8.27202 -0.0477905 -0.4584
                CHANNELS 3 Zrotation Xrotation Yrotation
                JOINT lPinky2
                {
                  OFFSET 1.82734 -0.647385 -0.700984
                  CHANNELS 3 Zrotation Xrotation Yrotation
                  End Site
                  {
                    OFFSET 1.69225 -0.51767 -0.607171
                  }
                }
              }
            }
          }
        }
      }
    }
  }
  JOINT rButtock
  {
    OFFSET -8.77824 4.35084 1.2192
    CHANNELS 3 Zrotation Xrotation Yrotation
    JOINT rThigh
    {
      OFFSET 0 -1.70687 -2.19456
      CHANNELS 3 Zrotation Xrotation Yrotation
      JOINT rShin
      {
        OFFSET 0 -36.8199 0.73152
        CHANNELS 3 Zrotation Xrotation Yrotation
        JOINT rFoot
        {
          OFFSET 0.73152 -45.1104 -5.12064
          CHANNELS 3 Zrotation Xrotation Yrotation
          End Site
          {
            OFFSET -1.1221 -3.69964 12.103
          }
        }
      }
    }
  }
  JOINT lButtock
  {
    OFFSET 8.77824 4.35084 1.2192
    CHANNELS 3 Zrotation Xrotation Yrotation
    JOINT lThigh
    {
      OFFSET 0 -1.70687 -2.19456
      CHANNELS 3 Zrotation Xrotation Yrotation
      JOINT lShin
      {
        OFFSET 0 -36.8199 0.73152
        CHANNELS 3 Zrotation Xrotation Yrotation
        JOINT lFoot
        {
          OFFSET -0.73152 -45.1104 -5.12064
          CHANNELS 3 Zrotation Xrotation Yrotation
          End Site
          {
            OFFSET 1.1221 -3.69964 12.103
          }
        }
      }
    }
  }
}
MOTION
Frames:	8
Frame Time:	0.00833333
45.3682 76.0951 -31.926 19.4568 -109.086 -42.2034 6.88815 6.8382 -0.822971 0.0301954 -5.62726 -0.0579629 -5.31987 0.498953 14.5354 13.5798 12.6569 27.971 -0.0 0.0 0.0 -0.0 0.0 0.0 -2.02162e-13 1.43096e-13 -3.90124e-13 28.8706 46.628 56.9365 -26.8074 -44.4976 92.4618 -0.124657 10.018 1.42251 -3.07752e-10 -1.27588e-09 -2.61529e-09 -5.47149e-10 -2.18748e-09 -4.51346e-09 -3.07752e-10 -1.27588e-09 -2.61529e-09 7.73091 5.47488 0.417314 -3.07756e-10 -1.27587e-09 -2.61528e-09 2.90554 0.965183 0.102902 -3.07744e-10 -1.27588e-09 -2.61529e-09 10.2786 0.731801 0.0259123 -3.07753e-10 -1.27588e-09 -2.61528e-09 2.22167 -0.733487 -0.20892 -2.02207e-13 1.43079e-13 -3.90304e-13 -12.2651 45.0983 -80.4018 27.7352 -41.6247 -86.8991 0.00126596 1.26168 -0.177306 1.70422e-10 1.00317e-08 -4.12167e-09 2.919e-10 1.73454e-08 -7.12321e-09 1.70419e-10 1.00317e-08 -4.12165e-09 -7.73091 5.47488 -0.417314 1.70422e-10 1.00317e-08 -4.12166e-09 -2.90554 0.965183 -0.102902 1.70416e-10 1.00317e-08 -4.12166e-09 -10.2786 0.731801 -0.0259123 1.70425e-10 1.00317e-08 -4.12167e-09 -2.22167 -0.733487 0.20892 -2.03217e-16 0.0 -3.88251e-19 19.4662 -12.4165 8.64788 -1.02772 60.6864 1.81769 -2.5003 -21.3089 -4.12597 2.03217e-16 0.0 3.88251e-19 56.2266 -51.5817 44.7378 176.159 67.4983 -176.651 -1.09963 4.2851 -8.71562
44.8883 76.1923 -31.8306 18.3458 -109.563 -41.8565 7.12906 7.89647 -0.330519 -0.178333 -5.63756 0.0690732 -5.36195 0.514914 14.5834 13.5448 12.5211 28.0984 -0.0 0.0 0.0 -0.0 0.0 0.0 -1.14974e-13 -2.91268e-13 -3.53328e-13 29.6043 46.0562 56.9988 -27.0284 -43.9114 91.3057 -0.102277 9.06533 1.28487 -3.0485e-11 -1.36893e-09 -2.33763e-09 -6.26604e-11 -2.3556e-09 -4.03689e-09 -3.04843e-11 -1.36892e-09 -2.33763e-09 7.73091 5.47488 0.417314 -3.04878e-11 -1.36892e-09 -2.33763e-09 2.90554 0.965183 0.102902 -3.0475e-11 -1.36892e-09 -2.33763e-09 10.2786 0.731801 0.0259123 -3.04845e-11 -1.36893e-09 -2.33762e-09 2.22167 -0.733487 -0.20892 -1.14989e-13 -2.91286e-13 -3.53451e-13 -12.8345 43.9102 -80.0086 27.9161 -40.7947 -85.3998 -0.000117819 0.407586 -0.0572441 -9.7652e-11 9.82252e-09 -3.91904e-09 -1.67527e-10 1.69872e-08 -6.7745e-09 -9.76529e-11 9.82251e-09 -3.91903e-09 -7.73091 5.47488 -0.417314 -9.76507e-11 9.82253e-09 -3.91904e-09 -2.90554 0.965183 -0.102902 -9.7657e-11 9.82252e-09 -3.91905e-09 -10.2786 0.731801 -0.0259123 -9.76492e-11 9.82252e-09 -3.91905e-09 -2.22167 -0.733487 0.20892 -2.03217e-16 0.0 -3.88251e-19 19.2113 -11.2631 8.79002 -1.01304 60.6342 1.85608 -2.47854 -21.5952 -3.9993 2.03217e-16 0.0 3.88251e-19 59.3969 -53.741 48.2655 176.108 67.9001 -176.587 -1.13431 4.01692 -8.68088
44.4136 76.3105 -31.7191 17.1203 -110.011 -41.4016 7.31187 8.94063 0.148756 -0.405068 -5.64308 0.188703 -5.37294 0.535156 14.6348 13.4855 12.4033 28.2226 -0.0 0.0 0.0 -0.0 0.0 0.0 -3.10133e-14 -7.53981e-13 -3.32318e-13 30.4621 45.5072 57.0199 -27.2592 -43.2798 90.0299 -0.080336 8.05956 1.1403 1.03034e-10 -1.37594e-09 -2.08797e-09 1.72721e-10 -2.37351e-09 -3.60787e-09 1.03036e-10 -1.37593e-09 -2.08797e-09 7.73091 5.47488 0.417314 1.03033e-10 -1.37593e-09 -2.08797e-09 2.90554 0.965183 0.102902 1.03044e-10 -1.37593e-09 -2.08797e-09 10.2786 0.731801 0.0259123 1.03034e-10 -1.37594e-09 -2.08796e-09 2.22167 -0.733487 -0.20892 -3.10095e-14 -7.54e-13 -3.32418e-13 -13.3914 42.7401 -79.589 28.0866 -39.9309 -83.798 0.000224779 -0.428093 0.0601657 -3.33946e-10 9.52506e-09 -3.64659e-09 -5.72934e-10 1.64751e-08 -6.30419e-09 -3.33946e-10 9.52505e-09 -3.64657e-09 -7.73091 5.47488 -0.417314 -3.33944e-10 9.52507e-09 -3.64659e-09 -2.90554 0.965183 -0.102902 -3.3395e-10 9.52506e-09 -3.64659e-09 -10.2786 0.731801 -0.0259123 -3.33943e-10 9.52506e-09 -3.6466e-09 -2.22167 -0.733487 0.20892 -2.03217e-16 0.0 -3.88251e-19 18.8759 -10.1129 8.9255 -0.997744 60.5538 1.88926 -2.44139 -21.8706 -3.84916 2.03217e-16 0.0 3.88251e-19 62.5546 -55.6579 51.7799 176.016 68.6073 -176.476 -1.14427 3.76433 -8.52086
43.9482 76.4481 -31.5918 15.8349 -110.435 -40.8909 7.432 9.97937 0.624606 -0.682265 -5.65397 0.302128 -5.33616 0.567092 14.6912 13.4087 12.2988 28.3412 -0.0 0.0 0.0 -0.0 0.0 0.0 6.19817e-14 -1.37804e-12 -3.34293e-13 31.4759 44.9892 56.9945 -27.4868 -42.576 88.6514 -0.060573 7.0135 0.99064 7.914e-11 -1.24215e-09 -1.86977e-09 1.35326e-10 -2.14612e-09 -3.23198e-09 7.91424e-11 -1.24215e-09 -1.86977e-09 7.73091 5.47488 0.417314 7.91395e-11 -1.24215e-09 -1.86977e-09 2.90554 0.965183 0.102902 7.91487e-11 -1.24215e-09 -1.86976e-09 10.2786 0.731801 0.0259123 7.91374e-11 -1.24216e-09 -1.86975e-09 2.22167 -0.733487 -0.20892 6.19931e-14 -1.37805e-12 -3.3442e-13 -13.9209 41.5993 -79.1416 28.2333 -38.9994 -82.1142 0.00174907 -1.25193 0.175937 -6.1789e-10 9.12759e-09 -3.31478e-09 -1.06138e-09 1.57893e-08 -5.73042e-09 -6.1789e-10 9.12758e-09 -3.31476e-09 -7.73091 5.47488 -0.417314 -6.17887e-10 9.1276e-09 -3.31478e-09 -2.90554 0.965183 -0.102902 -6.17893e-10 9.1276e-09 -3.31479e-09 -10.2786 0.731801 -0.0259123 -6.17887e-10 9.12759e-09 -3.31479e-09 -2.22167 -0.733487 0.20892 -2.03217e-16 0.0 -3.88251e-19 18.4397 -8.95609 9.05187 -0.981494 60.4417 1.91717 -2.38068 -22.138 -3.65915 2.03217e-16 0.0 3.88251e-19 65.5617 -57.3814 55.1717 175.867 69.6481 -176.298 -1.12154 3.53558 -8.23059
43.4976 76.6013 -31.4504 14.5433 -110.831 -40.3708 7.48554 11.0109 1.10292 -0.992398 -5.664 0.41197 -5.26783 0.608436 14.7522 13.3174 12.2085 28.4573 -0.0 0.0 0.0 -0.0 0.0 0.0 1.73242e-13 -2.16967e-12 -3.47581e-13 32.6116 44.4957 56.9374 -27.6948 -41.7915 87.2034 -0.0438483 5.91733 0.834538 -3.54785e-11 -1.01329e-09 -1.64215e-09 -5.88169e-11 -1.75379e-09 -2.83937e-09 -3.5475e-11 -1.01329e-09 -1.64215e-09 7.73091 5.47488 0.417314 -3.54778e-11 -1.01329e-09 -1.64215e-09 2.90554 0.965183 0.102902 -3.54729e-11 -1.0133e-09 -1.64214e-09 10.2786 0.731801 0.0259123 -3.54859e-11 -1.0133e-09 -1.64213e-09 2.22167 -0.733487 -0.20892 1.73255e-13 -2.16968e-12 -3.47771e-13 -14.4277 40.4748 -78.6802 28.3375 -37.978 -80.3783 0.00489885 -2.08288 0.292824 -9.52585e-10 8.57543e-09 -2.89597e-09 -1.63774e-09 1.4836e-08 -5.00578e-09 -9.52586e-10 8.57543e-09 -2.89595e-09 -7.73091 5.47488 -0.417314 -9.52582e-10 8.57543e-09 -2.89597e-09 -2.90554 0.965183 -0.102902 -9.52587e-10 8.57543e-09 -2.89597e-09 -10.2786 0.731801 -0.0259123 -9.52582e-10 8.57543e-09 -2.89598e-09 -2.22167 -0.733487 0.20892 -2.03217e-16 0.0 -3.88251e-19 17.9082 -7.79453 9.1815 -0.964693 60.3067 1.94079 -2.29995 -22.4004 -3.43587 2.03217e-16 0.0 3.88251e-19 68.3985 -58.9714 58.4703 175.639 71.0238 -176.034 -1.06865 3.34262 -7.84612
43.0593 76.7703 -31.2953 13.2422 -111.177 -39.8484 7.48953 12.0164 1.55858 -1.27617 -5.655 0.513545 -5.19337 0.644206 14.8144 13.1935 12.1416 28.574 -0.0 0.0 0.0 -0.0 0.0 0.0 2.68254e-13 -2.82496e-12 -3.64743e-13 33.8179 44.0121 56.8526 -27.8844 -40.9541 85.683 -0.028882 4.74951 0.668961 -2.60091e-10 -7.78262e-10 -1.42798e-09 -4.43474e-10 -1.35022e-09 -2.46988e-09 -2.60087e-10 -7.78266e-10 -1.42799e-09 7.73091 5.47488 0.417314 -2.6009e-10 -7.7827e-10 -1.42798e-09 2.90554 0.965183 0.102902 -2.60088e-10 -7.78272e-10 -1.42797e-09 10.2786 0.731801 0.0259123 -2.60103e-10 -7.7827e-10 -1.42796e-09 2.22167 -0.733487 -0.20892 2.6826e-13 -2.82497e-12 -3.64999e-13 -14.9338 39.3469 -78.2117 28.4016 -36.9046 -78.5794 0.00986167 -2.89191 0.406768 -1.15699e-09 7.93607e-09 -2.38729e-09 -1.98996e-09 1.37299e-08 -4.12503e-09 -1.15699e-09 7.93607e-09 -2.38727e-09 -7.73091 5.47488 -0.417314 -1.15698e-09 7.93607e-09 -2.38729e-09 -2.90554 0.965183 -0.102902 -1.15699e-09 7.93607e-09 -2.38729e-09 -10.2786 0.731801 -0.0259123 -1.15698e-09 7.93607e-09 -2.3873e-09 -2.22167 -0.733487 0.20892 -2.03217e-16 0.0 -3.88251e-19 17.3243 -6.64875 9.31143 -0.947672 60.1496 1.95943 -2.21388 -22.6484 -3.21081 2.03217e-16 0.0 3.88251e-19 71.1379 -60.406 61.6822 175.319 72.6698 -175.673 -0.996632 3.15685 -7.35174
42.6442 76.9486 -31.1298 11.981 -111.493 -39.3507 7.46342 12.9772 1.96592 -1.47441 -5.60882 0.602157 -5.13814 0.659438 14.8744 13.0184 12.1073 28.6945 -0.0 0.0 0.0 -0.0 0.0 0.0 3.12507e-13 -3.04001e-12 -3.78337e-13 35.0434 43.5239 56.7449 -28.0594 -40.0895 84.0822 -0.0149486 3.48847 0.490886 -6.13968e-10 -6.25984e-10 -1.25012e-09 -1.05241e-09 -1.0891e-09 -2.16336e-09 -6.13962e-10 -6.2599e-10 -1.25013e-09 7.73091 5.47488 0.417314 -6.13966e-10 -6.25994e-10 -1.25011e-09 2.90554 0.965183 0.102902 -6.13966e-10 -6.25996e-10 -1.25011e-09 10.2786 0.731801 0.0259123 -6.13983e-10 -6.25993e-10 -1.2501e-09 2.22167 -0.733487 -0.20892 3.12492e-13 -3.04001e-12 -3.78635e-13 -15.4608 38.1961 -77.7447 28.433 -35.8124 -76.6956 0.0163672 -3.64998 0.513673 -1.05005e-09 7.27701e-09 -1.78591e-09 -1.80603e-09 1.25858e-08 -3.08289e-09 -1.05006e-09 7.27701e-09 -1.78589e-09 -7.73091 5.47488 -0.417314 -1.05005e-09 7.277e-09 -1.78591e-09 -2.90554 0.965183 -0.102902 -1.05006e-09 7.27701e-09 -1.78591e-09 -10.2786 0.731801 -0.0259123 -1.05005e-09 7.27701e-09 -1.78592e-09 -2.22167 -0.733487 0.20892 -2.03217e-16 0.0 -3.88251e-19 16.7315 -5.53927 9.43845 -0.930798 59.9717 1.97247 -2.13791 -22.8728 -3.01577 2.03217e-16 0.0 3.88251e-19 73.84 -61.6573 64.7947 174.885 74.5215 -175.191 -0.915507 2.94956 -6.73186
42.2505 77.1353 -30.9563 10.7743 -111.778 -38.8917 7.40203 13.8907 2.31426 -1.55479 -5.51039 0.675326 -5.10906 0.64548 14.933 12.7679 12.1123 28.8248 -0.0 0.0 0.0 -0.0 0.0 0.0 2.74704e-13 -2.56495e-12 -3.98717e-13 36.2563 43.0213 56.6358 -28.2107 -39.1683 82.4109 -0.00326351 2.08025 0.292504 -1.1442e-09 -6.61026e-10 -1.30161e-09 -1.96621e-09 -1.15116e-09 -2.2531e-09 -1.1442e-09 -6.6103e-10 -1.30162e-09 7.73091 5.47488 0.417314 -1.1442e-09 -6.61034e-10 -1.3016e-09 2.90554 0.965183 0.102902 -1.1442e-09 -6.61035e-10 -1.3016e-09 10.2786 0.731801 0.0259123 -1.14422e-09 -6.61032e-10 -1.30159e-09 2.22167 -0.733487 -0.20892 2.74643e-13 -2.56495e-12 -3.9902e-13 -16.0716 37.0207 -77.2623 28.4229 -34.6505 -74.7301 0.0239203 -4.42336 0.622861 -4.22846e-10 6.84384e-09 -1.12536e-09 -7.25588e-10 1.18252e-08 -1.93576e-09 -4.22849e-10 6.84384e-09 -1.12535e-09 -7.73091 5.47488 -0.417314 -4.22843e-10 6.84384e-09 -1.12536e-09 -2.90554 0.965183 -0.102902 -4.22848e-10 6.84384e-09 -1.12536e-09 -10.2786 0.731801 -0.0259123 -4.22841e-10 6.84384e-09 -1.12537e-09 -2.22167 -0.733487 0.20892 -2.03217e-16 0.0 -3.88251e-19 16.1248 -4.46153 9.56047 -0.913909 59.765 1.97944 -2.07688 -23.0701 -2.86021 2.03217e-16 0.0 3.88251e-19 76.3932 -62.7604 67.685 174.253 76.5948 -174.502 -0.81758 2.70292 -5.93171
